<svg width="674" height="759" viewBox="0 0 674 759" fill="none" xmlns="http://www.w3.org/2000/svg">
<g clip-path="url(#clip0_575_237)">
<path d="M70 80.0933C70 69.0476 78.9543 60.0933 90 60.0933H674V758.093H90C78.9543 758.093 70 749.139 70 738.093V80.0933Z" fill="#142C55"/>
<path d="M610.572 717.91C609.205 719.276 606.989 719.276 605.622 717.91L583.348 695.636C581.982 694.269 581.982 692.053 583.348 690.686C584.715 689.319 586.931 689.319 588.298 690.686L608.097 710.485L627.896 690.686C629.263 689.319 631.479 689.319 632.846 690.686C634.213 692.053 634.213 694.269 632.846 695.636L610.572 717.91ZM604.597 715.435V669.418H611.597V715.435H604.597Z" fill="white"/>
<path d="M70.0711 -9.90674C68.6152 52.6144 88.977 181.174 182.071 195.241C298.439 212.825 429.343 165.934 487.956 306.607C546.57 447.28 362.914 544.969 282.809 443.372C218.724 362.095 273.04 310.515 308.208 294.884C362.263 262.972 491.864 233.926 577.831 373.036C685.289 546.923 644.259 693.457 777.117 720.81" stroke="white" stroke-width="7" stroke-dasharray="14 14"/>
<path d="M400.931 360.854L434.364 327.422" stroke="#F8CA0F" stroke-width="7"/>
<path d="M412.245 372.168L445.678 338.735" stroke="#F8CA0F" stroke-width="7"/>
<path d="M423.559 383.482L456.991 350.049" stroke="#F8CA0F" stroke-width="7"/>
</g>
<circle cx="555.794" cy="69.0432" r="68.2805" fill="#DF5690"/>
<rect y="398.656" width="28.848" height="46.4985" fill="#F8CA0F"/>
<rect x="42.9028" y="371.287" width="28.848" height="73.8674" fill="#F8CA0F"/>
<rect x="85.8057" y="343.918" width="28.848" height="101.236" fill="#F8CA0F"/>
<defs>
<clipPath id="clip0_575_237">
<path d="M70 80.0933C70 69.0476 78.9543 60.0933 90 60.0933H674V758.093H90C78.9543 758.093 70 749.139 70 738.093V80.0933Z" fill="white"/>
</clipPath>
</defs>
</svg>
