<svg width="1089" height="358" viewBox="0 0 1089 358" fill="none" xmlns="http://www.w3.org/2000/svg">
<path d="M653.051 46.3293C651.684 44.9625 649.468 44.9625 648.101 46.3293L625.827 68.6032C624.461 69.97 624.461 72.1861 625.827 73.5529C627.194 74.9197 629.41 74.9197 630.777 73.5529L650.576 53.7539L670.375 73.5529C671.742 74.9197 673.958 74.9197 675.325 73.5529C676.692 72.1861 676.692 69.97 675.325 68.6032L653.051 46.3293ZM647.076 48.8042V90.9878H654.076V48.8042H647.076Z" fill="#4770B7"/>
<circle cx="1011.97" cy="314.277" r="20.3807" fill="#231F20"/>
<path d="M493.825 -188.366C492.369 -125.844 512.731 2.71482 605.825 16.7822C722.193 34.3663 853.097 -12.5245 911.71 128.148C970.324 268.821 786.668 366.51 706.563 264.913C642.478 183.636 696.794 132.056 731.962 116.425C786.017 84.5136 915.618 55.4673 1001.58 194.577C1109.04 368.464 1068.01 514.998 1200.87 542.351" stroke="white" stroke-width="7" stroke-dasharray="14 14"/>
<path d="M186 47.2685L219.433 13.8356" stroke="#F8CA0F" stroke-width="7"/>
<path d="M197.313 58.5822L230.746 25.1493" stroke="#F8CA0F" stroke-width="7"/>
<path d="M208.627 69.8959L242.06 36.463" stroke="#F8CA0F" stroke-width="7"/>
</svg>
