<svg width="40" height="38" viewBox="0 0 40 38" fill="none" xmlns="http://www.w3.org/2000/svg">
<path d="M1 31.1582L0.321783 30.4234C0.0206603 30.7013 -0.0804442 31.1348 0.0666616 31.5172C0.213767 31.8997 0.579311 32.1537 0.989055 32.1582L1 31.1582ZM25.029 31.4212L25.018 32.4212C25.2794 32.424 25.5315 32.3245 25.7203 32.1437L25.029 31.4212ZM39 18.0523L39.6914 18.7748C39.9865 18.4924 40.0802 18.0589 39.928 17.6799C39.7759 17.3008 39.4085 17.0523 39 17.0523V18.0523ZM6.81719 37H5.81719C5.81719 37.4007 6.05634 37.7626 6.42488 37.9198C6.79343 38.077 7.22021 37.9991 7.50938 37.7217L6.81719 37ZM6.81719 13.6318L6.12535 12.9097C5.9285 13.0983 5.81719 13.3591 5.81719 13.6318H6.81719ZM20.0006 1H21.0006C21.0006 0.599423 20.7615 0.2375 20.3931 0.0802611C20.0247 -0.0769776 19.598 0.000813638 19.3087 0.277948L20.0006 1ZM12.2816 2.89419L12.2948 1.89428C12.0273 1.89076 11.7696 1.99455 11.5792 2.18245C11.3888 2.37035 11.2816 2.62669 11.2816 2.89419H12.2816ZM36.282 3.21026H37.282C37.282 2.66312 36.8423 2.21756 36.2952 2.21035L36.282 3.21026ZM36.282 26.2635V27.2635C36.8343 27.2635 37.282 26.8158 37.282 26.2635H36.282ZM6.13896 25.0546L0.321783 30.4234L1.67822 31.8931L7.49539 26.5243L6.13896 25.0546ZM0.989055 32.1582L25.018 32.4212L25.0399 30.4213L1.01095 30.1583L0.989055 32.1582ZM25.7203 32.1437L39.6914 18.7748L38.3086 17.3298L24.3376 30.6987L25.7203 32.1437ZM39 17.0523H36.282V19.0523H39V17.0523ZM12.11 30.5382L6.125 36.2783L7.50938 37.7217L13.4944 31.9816L12.11 30.5382ZM7.81719 37V13.6318H5.81719V37H7.81719ZM7.50903 14.3538L20.6924 1.72205L19.3087 0.277948L6.12535 12.9097L7.50903 14.3538ZM19.0006 1V3.00031H21.0006V1H19.0006ZM13.2816 8.39559V2.89419H11.2816V8.39559H13.2816ZM12.2685 3.89411L36.2689 4.21018L36.2952 2.21035L12.2948 1.89428L12.2685 3.89411ZM35.282 3.21026V26.2635H37.282V3.21026H35.282ZM36.282 25.2635H30.4192V27.2635H36.282V25.2635ZM7.57746 31.9466L18.8682 21.198L17.4892 19.7494L6.19845 30.498L7.57746 31.9466ZM19.1787 20.4648L19.0223 2.8853L17.0224 2.90309L17.1787 20.4826L19.1787 20.4648ZM18.1787 21.4737L36.2821 21.4737L36.2821 19.4737L18.1787 19.4737L18.1787 21.4737Z" fill="white"/>
</svg>
