<svg width="90" height="91" viewBox="0 0 90 91" fill="none" xmlns="http://www.w3.org/2000/svg">
<path d="M42.0747 48.1726L41.8147 17.9589L72.1981 18.5015V48.1726H42.0747Z" fill="#F8CA0F"/>
<path d="M41.4718 18.23L32.4717 18.1077V27.5627L41.4718 18.23Z" fill="#F8CA0F"/>
<path d="M41.8148 18.2603L23.1687 36.4127L23.2874 66.647L42.0749 48.1726L41.8148 18.2603Z" fill="#4770B7"/>
<path d="M23.2874 66.6469L23.1687 76.7581L32.8479 66.9884L23.2874 66.6469Z" fill="#4770B7"/>
<path d="M41.8149 17.9586L45.1053 14.5511V18.26L41.6855 18.0866" fill="#4770B7"/>
<path d="M23.0478 57.2184L13.4893 66.5358L23.2872 66.6467L23.0478 57.2184Z" fill="#DF5690"/>
<path d="M23.2874 66.6468L23.6644 66.276L42.0748 48.1724H72.1981L53.4728 66.9883" fill="#DF5690"/>
<path d="M72.1982 48.1726L72.3793 43.9511L76.7212 44.0115L72.1982 48.1726Z" fill="#DF5690"/>
<path d="M72.1982 48.1724L62.4426 58.123H72.1982V48.1724Z" fill="#F8CA0F"/>
<path fill-rule="evenodd" clip-rule="evenodd" d="M22.8441 77.3552C23.1582 77.4862 23.5202 77.4155 23.7619 77.176L33.4236 67.6046L53.4634 67.8313C53.6886 67.8338 53.9054 67.7462 54.0656 67.5879L62.7891 58.9663H72.1983C72.6639 58.9663 73.0414 58.5888 73.0414 58.1232V48.8336L77.3139 44.611C77.557 44.3707 77.631 44.0073 77.5011 43.6911C77.3712 43.3748 77.0631 43.1683 76.7212 43.1683H73.0414V18.5014C73.0414 18.0403 72.6709 17.6647 72.2097 17.6584L45.9484 17.3015V14.702C45.9484 14.3618 45.7439 14.0549 45.43 13.9239C45.116 13.7929 44.7541 13.8635 44.5123 14.1028L41.3435 17.2389L32.2727 17.1156C32.0472 17.1125 31.8298 17.2 31.6692 17.3584C31.5086 17.5168 31.4182 17.733 31.4182 17.9586V27.0619L22.5755 35.8135C22.4155 35.9718 22.3255 36.1876 22.3255 36.4127V56.9479L12.9076 65.9258C12.6594 66.1624 12.5792 66.5258 12.7049 66.8449C12.8305 67.164 13.1369 67.3752 13.4798 67.379L22.3255 67.4791V76.5771C22.3255 76.9174 22.5301 77.2243 22.8441 77.3552ZM24.0117 67.4982V74.5551L31.0548 67.5778L24.0117 67.4982ZM32.8575 65.9119L25.3238 65.8267L42.4198 49.0156H70.4586L53.1306 66.1412L33.4169 65.9183C33.2368 65.8528 33.0388 65.8506 32.8575 65.9119ZM73.0414 46.4629L74.6688 44.8545H73.0414V46.4629ZM71.3552 50.5001L64.4952 57.2801H71.3552V50.5001ZM22.3255 65.7928V59.2775L15.571 65.7164L22.3255 65.7928ZM71.3552 47.3294H42.9106L42.6663 18.9432L44.989 18.9748C45.027 18.98 45.0658 18.9827 45.1053 18.9827C45.1369 18.9827 45.168 18.981 45.1987 18.9776L71.3552 19.3331V47.3294ZM40.9889 19.9622L24.0117 36.7645V64.7521L41.2286 47.822L40.9889 19.9622ZM33.1044 18.8132L39.6627 18.9024L33.1044 25.3931V18.8132ZM44.2622 17.2785L43.7081 17.271L44.2622 16.7226V17.2785Z" fill="#231F20"/>
</svg>
