<svg width="98" height="98" viewBox="0 0 98 98" fill="none" xmlns="http://www.w3.org/2000/svg">
<path d="M25.1751 61.598L14.873 71.6401L25.433 71.7596L25.1751 61.598Z" fill="#DF5690"/>
<path d="M25.4326 71.7597L25.839 71.3601L45.6813 51.8484H78.1476L57.9658 72.1278" fill="#DF5690"/>
<path d="M78.1475 51.8484L78.3426 47.2985L83.0222 47.3636L78.1475 51.8484Z" fill="#DF5690"/>
<path fill-rule="evenodd" clip-rule="evenodd" d="M24.9549 83.3009C25.2934 83.442 25.6836 83.3659 25.9441 83.1078L36.3573 72.7919L57.9557 73.0362C58.1984 73.039 58.4321 72.9445 58.6047 72.7739L68.0067 63.4817H78.1477C78.6496 63.4817 79.0564 63.0749 79.0564 62.573V52.561L83.6612 48.01C83.9233 47.7509 84.003 47.3593 83.863 47.0184C83.723 46.6776 83.3909 46.455 83.0225 46.455H79.0564V19.8696C79.0564 19.3726 78.6571 18.9678 78.1601 18.961L49.8562 18.5763V15.7747C49.8562 15.408 49.6358 15.0773 49.2974 14.9361C48.9591 14.7949 48.569 14.8709 48.3083 15.1288L44.8932 18.5088L35.1169 18.3759C34.8737 18.3726 34.6394 18.4669 34.4664 18.6376C34.2933 18.8084 34.1958 19.0414 34.1958 19.2845V29.0959L24.6654 38.5281C24.493 38.6988 24.396 38.9313 24.396 39.174V61.3064L14.2456 70.9825C13.9781 71.2375 13.8917 71.6292 14.0271 71.9731C14.1625 72.317 14.4927 72.5446 14.8623 72.5488L24.396 72.6566V82.4622C24.396 82.829 24.6164 83.1598 24.9549 83.3009ZM26.2133 72.6772V80.283L33.8042 72.7631L26.2133 72.6772ZM35.7471 70.9676L27.6274 70.8757L46.0531 52.7571H76.2727L57.597 71.2147L36.35 70.9744C36.1559 70.9038 35.9425 70.9015 35.7471 70.9676ZM79.0564 50.0059L80.8104 48.2723H79.0564V50.0059ZM77.2391 54.3571L69.8455 61.6643H77.2391V54.3571ZM24.396 70.8392V63.8172L17.1161 70.7568L24.396 70.8392ZM77.2391 50.9397H46.5822L46.3189 20.3457L48.8222 20.3797C48.8631 20.3854 48.905 20.3883 48.9475 20.3883C48.9815 20.3883 49.0151 20.3864 49.0481 20.3828L77.2391 20.766V50.9397ZM44.5109 21.444L26.2133 39.5531V69.7175L44.7693 51.4707L44.5109 21.444ZM36.0132 20.2056L43.0816 20.3017L36.0132 27.2973V20.2056ZM48.0389 18.5516L47.4417 18.5435L48.0389 17.9524V18.5516Z" fill="white"/>
</svg>
