<svg width="98" height="98" viewBox="0 0 98 98" fill="none" xmlns="http://www.w3.org/2000/svg">
<path d="M45.7341 19.6096L25.6377 39.1739L25.7656 71.7598L46.0143 51.8485L45.7341 19.6096Z" fill="#4770B7"/>
<path d="M25.7656 71.7597L25.6377 82.6572L36.0697 72.1277L25.7656 71.7597Z" fill="#4770B7"/>
<path d="M45.7341 19.2846L49.2805 15.6122V19.6095L45.5947 19.4226" fill="#4770B7"/>
<path fill-rule="evenodd" clip-rule="evenodd" d="M25.2879 83.3009C25.6264 83.442 26.0166 83.3659 26.2771 83.1078L36.6903 72.7919L58.2887 73.0362C58.5314 73.039 58.7651 72.9445 58.9377 72.7739L68.3397 63.4817H78.4807C78.9826 63.4817 79.3894 63.0749 79.3894 62.573V52.561L83.9942 48.01C84.2563 47.7509 84.336 47.3593 84.196 47.0184C84.056 46.6776 83.724 46.455 83.3555 46.455H79.3894V19.8696C79.3894 19.3726 78.9901 18.9678 78.4931 18.961L50.1892 18.5763V15.7747C50.1892 15.408 49.9688 15.0773 49.6304 14.9361C49.2921 14.7949 48.902 14.8709 48.6414 15.1288L45.2262 18.5088L35.4499 18.3759C35.2067 18.3726 34.9725 18.4669 34.7994 18.6376C34.6263 18.8084 34.5288 19.0414 34.5288 19.2845V29.0959L24.9984 38.5281C24.826 38.6988 24.729 38.9313 24.729 39.174V61.3064L14.5786 70.9825C14.3111 71.2375 14.2247 71.6292 14.3601 71.9731C14.4955 72.317 14.8257 72.5446 15.1953 72.5488L24.729 72.6566V82.4622C24.729 82.829 24.9494 83.1598 25.2879 83.3009ZM26.5463 72.6772V80.283L34.1372 72.7631L26.5463 72.6772ZM36.0801 70.9676L27.9604 70.8757L46.3861 52.7571H76.6057L57.93 71.2147L36.683 70.9744C36.4889 70.9038 36.2755 70.9015 36.0801 70.9676ZM79.3894 50.0059L81.1434 48.2723H79.3894V50.0059ZM77.5721 54.3571L70.1785 61.6643H77.5721V54.3571ZM24.729 70.8392V63.8172L17.4491 70.7568L24.729 70.8392ZM77.5721 50.9397H46.9152L46.6519 20.3457L49.1552 20.3797C49.1962 20.3854 49.238 20.3883 49.2805 20.3883C49.3146 20.3883 49.3481 20.3864 49.3812 20.3828L77.5721 20.766V50.9397ZM44.8439 21.444L26.5463 39.5531V69.7175L45.1023 51.4707L44.8439 21.444ZM36.3462 20.2056L43.4146 20.3017L36.3462 27.2973V20.2056ZM48.3719 18.5516L47.7747 18.5435L48.3719 17.9524V18.5516Z" fill="white"/>
</svg>
