<svg width="97" height="98" viewBox="0 0 97 98" fill="none" xmlns="http://www.w3.org/2000/svg">
<path d="M45.3472 51.8484L45.0669 19.2847L77.8134 19.8696V51.8484H45.3472Z" fill="#F8CA0F"/>
<path d="M44.6972 19.5771L34.9971 19.4453V29.6357L44.6972 19.5771Z" fill="#F8CA0F"/>
<path d="M77.8136 51.8484L67.2993 62.573H77.8136V51.8484Z" fill="#F8CA0F"/>
<path fill-rule="evenodd" clip-rule="evenodd" d="M24.6209 83.3009C24.9594 83.442 25.3496 83.3659 25.6101 83.1078L36.0233 72.7919L57.6217 73.0362C57.8644 73.039 58.0981 72.9445 58.2707 72.7739L67.6727 63.4817H77.8138C78.3156 63.4817 78.7224 63.0749 78.7224 62.573V52.561L83.3272 48.01C83.5893 47.7509 83.669 47.3593 83.529 47.0184C83.389 46.6776 83.057 46.455 82.6885 46.455H78.7224V19.8696C78.7224 19.3726 78.3231 18.9678 77.8261 18.961L49.5222 18.5763V15.7747C49.5222 15.408 49.3018 15.0773 48.9635 14.9361C48.6251 14.7949 48.235 14.8709 47.9744 15.1288L44.5592 18.5088L34.7829 18.3759C34.5398 18.3726 34.3055 18.4669 34.1324 18.6376C33.9593 18.8084 33.8619 19.0414 33.8619 19.2845V29.0959L24.3315 38.5281C24.159 38.6988 24.062 38.9313 24.062 39.174V61.3064L13.9116 70.9825C13.6441 71.2375 13.5577 71.6292 13.6931 71.9731C13.8285 72.317 14.1587 72.5446 14.5283 72.5488L24.062 72.6566V82.4622C24.062 82.829 24.2824 83.1598 24.6209 83.3009ZM25.8793 72.6772V80.283L33.4702 72.7631L25.8793 72.6772ZM35.4131 70.9676L27.2934 70.8757L45.7191 52.7571H75.9387L57.263 71.2147L36.016 70.9744C35.8219 70.9038 35.6085 70.9015 35.4131 70.9676ZM78.7224 50.0059L80.4764 48.2723H78.7224V50.0059ZM76.9051 54.3571L69.5115 61.6643H76.9051V54.3571ZM24.062 70.8392V63.8172L16.7821 70.7568L24.062 70.8392ZM76.9051 50.9397H46.2482L45.9849 20.3457L48.4882 20.3797C48.5292 20.3854 48.571 20.3883 48.6136 20.3883C48.6476 20.3883 48.6811 20.3864 48.7142 20.3828L76.9051 20.766V50.9397ZM44.1769 21.444L25.8793 39.5531V69.7175L44.4354 51.4707L44.1769 21.444ZM35.6792 20.2056L42.7476 20.3017L35.6792 27.2973V20.2056ZM47.7049 18.5516L47.1077 18.5435L47.7049 17.9524V18.5516Z" fill="white"/>
</svg>
